# xmcd CD database file
#
# Track frame offsets:
#	150
#	15607
#	32055
#	52522
#	67835
#	83177
#	100895
#	115580
#	132105
#	150917
#	170602
#	186267
#
# Disc length: 2688 seconds
#
# Revision: 3
# Processed by: cddbd v1.5.1PL0 Copyright (c) Steve Scherf et al.
# Submitted via: CDex 1.51
#
DISCID=840a7e0c
DTITLE=Amanda Lear - Je T'aime
DYEAR=1993
DGENRE=New Age
TTITLE0=Echec Et Mat
TTITLE1=Ma Chere Claire
TTITLE2=L'Ecole D'Amour
TTITLE3=Indovina Chi Sono
TTITLE4=La Partita Di Pallone
TTITLE5=Una Notte Insieme A Te
TTITLE6=Telegramme
TTITLE7=Demain
TTITLE8=Una Rose Un Tango
TTITLE9=Ragazzino
TTITLE10=Due
TTITLE11=Illibata
EXTD=YEAR: 1993
EXTT0=
EXTT1=
EXTT2=
EXTT3=
EXTT4=
EXTT5=
EXTT6=
EXTT7=
EXTT8=
EXTT9=
EXTT10=
EXTT11=
PLAYORDER=
